<mxfile host="65bd71144e">
    <diagram id="gsXFJ3B8pfcMQLoadZeO" name="Page-1">
        <mxGraphModel dx="815" dy="2120" grid="1" gridSize="10" guides="1" tooltips="1" connect="1" arrows="1" fold="1" page="1" pageScale="1" pageWidth="850" pageHeight="1100" math="0" shadow="0">
            <root>
                <mxCell id="0"/>
                <mxCell id="1" parent="0"/>
                <mxCell id="12" value="more&lt;br&gt;access" style="rounded=0;whiteSpace=wrap;html=1;fillColor=#a20025;fontColor=#ffffff;strokeColor=#000000;" parent="1" vertex="1">
                    <mxGeometry x="410" y="60" width="40" height="40" as="geometry"/>
                </mxCell>
                <mxCell id="16" value="Device" style="rounded=0;whiteSpace=wrap;html=1;fillColor=#60a917;fontColor=#ffffff;strokeColor=#000000;fontSize=12;" parent="1" vertex="1">
                    <mxGeometry x="10" y="60" width="40" height="40" as="geometry"/>
                </mxCell>
                <mxCell id="17" value="" style="rounded=0;whiteSpace=wrap;html=1;fillColor=#6a00ff;fontColor=#ffffff;strokeColor=#000000;" parent="1" vertex="1">
                    <mxGeometry x="50" y="60" width="120" height="40" as="geometry"/>
                </mxCell>
                <mxCell id="20" value="" style="shape=curlyBracket;whiteSpace=wrap;html=1;rounded=1;flipH=1;rotation=-90;" parent="1" vertex="1">
                    <mxGeometry x="100" y="-10" width="20" height="120" as="geometry"/>
                </mxCell>
                <mxCell id="21" value="" style="shape=curlyBracket;whiteSpace=wrap;html=1;rounded=1;flipH=1;rotation=-90;" parent="1" vertex="1">
                    <mxGeometry x="340" y="-10" width="20" height="120" as="geometry"/>
                </mxCell>
                <mxCell id="22" value="" style="shape=curlyBracket;whiteSpace=wrap;html=1;rounded=1;flipH=1;rotation=-90;" parent="1" vertex="1">
                    <mxGeometry x="220" y="-10" width="20" height="120" as="geometry"/>
                </mxCell>
                <mxCell id="23" value="Owner&lt;br&gt;Permissions" style="text;html=1;strokeColor=none;fillColor=none;align=center;verticalAlign=middle;whiteSpace=wrap;rounded=0;" parent="1" vertex="1">
                    <mxGeometry x="90" y="10" width="40" height="20" as="geometry"/>
                </mxCell>
                <mxCell id="24" value="Group&lt;br&gt;Permissions" style="text;html=1;strokeColor=none;fillColor=none;align=center;verticalAlign=middle;whiteSpace=wrap;rounded=0;" parent="1" vertex="1">
                    <mxGeometry x="210" y="10" width="40" height="20" as="geometry"/>
                </mxCell>
                <mxCell id="25" value="Other User's&lt;br&gt;Permissions" style="text;html=1;strokeColor=none;fillColor=none;align=center;verticalAlign=middle;whiteSpace=wrap;rounded=0;" parent="1" vertex="1">
                    <mxGeometry x="305" y="10" width="90" height="20" as="geometry"/>
                </mxCell>
                <mxCell id="57" style="edgeStyle=orthogonalEdgeStyle;html=1;exitX=0.5;exitY=0;exitDx=0;exitDy=0;entryX=0;entryY=0.5;entryDx=0;entryDy=0;endArrow=open;endFill=0;endSize=11;" parent="1" source="28" target="55" edge="1">
                    <mxGeometry relative="1" as="geometry"/>
                </mxCell>
                <mxCell id="28" value="-" style="rounded=0;whiteSpace=wrap;html=1;fontSize=23;fillColor=#6a00ff;fontColor=#ffffff;strokeColor=#000000;" parent="1" vertex="1">
                    <mxGeometry x="130" y="195" width="40" height="40" as="geometry"/>
                </mxCell>
                <mxCell id="30" value="r" style="rounded=0;whiteSpace=wrap;html=1;fontSize=23;fillColor=#6a00ff;fontColor=#ffffff;strokeColor=#000000;" parent="1" vertex="1">
                    <mxGeometry x="130" y="245" width="40" height="40" as="geometry"/>
                </mxCell>
                <mxCell id="31" value="File not readable" style="text;html=1;strokeColor=none;fillColor=none;align=left;verticalAlign=middle;whiteSpace=wrap;rounded=0;" parent="1" vertex="1">
                    <mxGeometry x="180" y="205" width="40" height="20" as="geometry"/>
                </mxCell>
                <mxCell id="32" value="file readable" style="text;html=1;strokeColor=none;fillColor=none;align=left;verticalAlign=middle;whiteSpace=wrap;rounded=0;" parent="1" vertex="1">
                    <mxGeometry x="180" y="255" width="40" height="20" as="geometry"/>
                </mxCell>
                <mxCell id="58" style="edgeStyle=orthogonalEdgeStyle;html=1;exitX=0.5;exitY=0;exitDx=0;exitDy=0;entryX=0.5;entryY=1;entryDx=0;entryDy=0;endArrow=open;endFill=0;endSize=11;" parent="1" source="33" target="56" edge="1">
                    <mxGeometry relative="1" as="geometry"/>
                </mxCell>
                <mxCell id="33" value="-" style="rounded=0;whiteSpace=wrap;html=1;fontSize=23;fillColor=#6a00ff;fontColor=#ffffff;strokeColor=#000000;" parent="1" vertex="1">
                    <mxGeometry x="240" y="195" width="40" height="40" as="geometry"/>
                </mxCell>
                <mxCell id="34" value="w" style="rounded=0;whiteSpace=wrap;html=1;fontSize=23;fillColor=#6a00ff;fontColor=#ffffff;strokeColor=#000000;" parent="1" vertex="1">
                    <mxGeometry x="240" y="245" width="40" height="40" as="geometry"/>
                </mxCell>
                <mxCell id="35" value="File not writable" style="text;html=1;strokeColor=none;fillColor=none;align=left;verticalAlign=middle;whiteSpace=wrap;rounded=0;" parent="1" vertex="1">
                    <mxGeometry x="290" y="205" width="40" height="20" as="geometry"/>
                </mxCell>
                <mxCell id="36" value="file&lt;br&gt;writable" style="text;html=1;strokeColor=none;fillColor=none;align=left;verticalAlign=middle;whiteSpace=wrap;rounded=0;" parent="1" vertex="1">
                    <mxGeometry x="290" y="255" width="40" height="20" as="geometry"/>
                </mxCell>
                <mxCell id="59" style="edgeStyle=orthogonalEdgeStyle;html=1;exitX=0.5;exitY=0;exitDx=0;exitDy=0;entryX=1;entryY=0.5;entryDx=0;entryDy=0;endArrow=open;endFill=0;endSize=11;" parent="1" source="37" target="54" edge="1">
                    <mxGeometry relative="1" as="geometry"/>
                </mxCell>
                <mxCell id="37" value="-" style="rounded=0;whiteSpace=wrap;html=1;fontSize=23;fillColor=#6a00ff;fontColor=#ffffff;strokeColor=#000000;" parent="1" vertex="1">
                    <mxGeometry x="350" y="195" width="40" height="40" as="geometry"/>
                </mxCell>
                <mxCell id="38" value="x" style="rounded=0;whiteSpace=wrap;html=1;fontSize=23;fillColor=#6a00ff;fontColor=#ffffff;strokeColor=#000000;" parent="1" vertex="1">
                    <mxGeometry x="350" y="245" width="40" height="40" as="geometry"/>
                </mxCell>
                <mxCell id="39" value="File cannot be executed" style="text;html=1;strokeColor=none;fillColor=none;align=left;verticalAlign=middle;whiteSpace=wrap;rounded=0;" parent="1" vertex="1">
                    <mxGeometry x="400" y="205" width="70" height="20" as="geometry"/>
                </mxCell>
                <mxCell id="40" value="file can be executed" style="text;html=1;strokeColor=none;fillColor=none;align=left;verticalAlign=middle;whiteSpace=wrap;rounded=0;" parent="1" vertex="1">
                    <mxGeometry x="400" y="255" width="60" height="20" as="geometry"/>
                </mxCell>
                <mxCell id="41" value="s" style="rounded=0;whiteSpace=wrap;html=1;fontSize=23;fillColor=#6a00ff;fontColor=#ffffff;strokeColor=#000000;" parent="1" vertex="1">
                    <mxGeometry x="350" y="295" width="40" height="40" as="geometry"/>
                </mxCell>
                <mxCell id="42" value="S" style="rounded=0;whiteSpace=wrap;html=1;fontSize=23;fillColor=#6a00ff;fontColor=#ffffff;strokeColor=#000000;" parent="1" vertex="1">
                    <mxGeometry x="350" y="345" width="40" height="40" as="geometry"/>
                </mxCell>
                <mxCell id="43" value="t" style="rounded=0;whiteSpace=wrap;html=1;fontSize=23;fillColor=#6a00ff;fontColor=#ffffff;strokeColor=#000000;" parent="1" vertex="1">
                    <mxGeometry x="350" y="395" width="40" height="40" as="geometry"/>
                </mxCell>
                <mxCell id="44" value="T" style="rounded=0;whiteSpace=wrap;html=1;fontSize=23;fillColor=#6a00ff;fontColor=#ffffff;strokeColor=#000000;" parent="1" vertex="1">
                    <mxGeometry x="350" y="445" width="40" height="40" as="geometry"/>
                </mxCell>
                <mxCell id="46" value="Same as S, but non-executable" style="text;html=1;strokeColor=none;fillColor=none;align=left;verticalAlign=middle;whiteSpace=wrap;rounded=0;" parent="1" vertex="1">
                    <mxGeometry x="400" y="355" width="120" height="20" as="geometry"/>
                </mxCell>
                <mxCell id="47" value="In user &amp;amp; group triad: file is executable, run with file system's permissions" style="text;html=1;strokeColor=none;fillColor=none;align=left;verticalAlign=middle;whiteSpace=wrap;rounded=0;" parent="1" vertex="1">
                    <mxGeometry x="400" y="305" width="160" height="20" as="geometry"/>
                </mxCell>
                <mxCell id="49" value="Sticky (keep in memory even after use ends) for executable file." style="text;html=1;strokeColor=none;fillColor=none;align=left;verticalAlign=middle;whiteSpace=wrap;rounded=0;" parent="1" vertex="1">
                    <mxGeometry x="400" y="405" width="170" height="20" as="geometry"/>
                </mxCell>
                <mxCell id="50" value="Same as t, but for non-executable" style="text;html=1;strokeColor=none;fillColor=none;align=left;verticalAlign=middle;whiteSpace=wrap;rounded=0;" parent="1" vertex="1">
                    <mxGeometry x="400" y="455" width="130" height="20" as="geometry"/>
                </mxCell>
                <mxCell id="54" value="exec" style="rounded=0;whiteSpace=wrap;html=1;fillColor=#6a00ff;fontColor=#ffffff;strokeColor=#000000;" parent="1" vertex="1">
                    <mxGeometry x="280" y="135" width="40" height="40" as="geometry"/>
                </mxCell>
                <mxCell id="55" value="read" style="rounded=0;whiteSpace=wrap;html=1;fillColor=#6a00ff;fontColor=#ffffff;strokeColor=#000000;" parent="1" vertex="1">
                    <mxGeometry x="200" y="135" width="40" height="40" as="geometry"/>
                </mxCell>
                <mxCell id="56" value="write" style="rounded=0;whiteSpace=wrap;html=1;fillColor=#6a00ff;fontColor=#ffffff;strokeColor=#000000;" parent="1" vertex="1">
                    <mxGeometry x="240" y="135" width="40" height="40" as="geometry"/>
                </mxCell>
                <mxCell id="60" value="Triad" style="text;html=1;strokeColor=none;fillColor=none;align=center;verticalAlign=middle;whiteSpace=wrap;rounded=0;" parent="1" vertex="1">
                    <mxGeometry x="70" y="70" width="80" height="20" as="geometry"/>
                </mxCell>
                <mxCell id="61" value="" style="endArrow=none;dashed=1;html=1;dashPattern=1 3;strokeWidth=2;endSize=11;entryX=0;entryY=0;entryDx=0;entryDy=0;exitX=0;exitY=1;exitDx=0;exitDy=0;" parent="1" edge="1">
                    <mxGeometry width="50" height="50" relative="1" as="geometry">
                        <mxPoint x="90" y="100" as="sourcePoint"/>
                        <mxPoint x="90" y="60" as="targetPoint"/>
                    </mxGeometry>
                </mxCell>
                <mxCell id="62" value="" style="endArrow=none;dashed=1;html=1;dashPattern=1 3;strokeWidth=2;endSize=11;entryX=0;entryY=0;entryDx=0;entryDy=0;exitX=0;exitY=1;exitDx=0;exitDy=0;" parent="1" edge="1">
                    <mxGeometry width="50" height="50" relative="1" as="geometry">
                        <mxPoint x="130" y="100" as="sourcePoint"/>
                        <mxPoint x="130" y="60" as="targetPoint"/>
                    </mxGeometry>
                </mxCell>
                <mxCell id="63" value="" style="rounded=0;whiteSpace=wrap;html=1;fillColor=#6a00ff;fontColor=#ffffff;strokeColor=#000000;" parent="1" vertex="1">
                    <mxGeometry x="170" y="60" width="120" height="40" as="geometry"/>
                </mxCell>
                <mxCell id="64" value="" style="endArrow=none;dashed=1;html=1;dashPattern=1 3;strokeWidth=2;endSize=11;entryX=0;entryY=0;entryDx=0;entryDy=0;exitX=0;exitY=1;exitDx=0;exitDy=0;" parent="1" edge="1">
                    <mxGeometry width="50" height="50" relative="1" as="geometry">
                        <mxPoint x="210" y="100" as="sourcePoint"/>
                        <mxPoint x="210" y="60" as="targetPoint"/>
                    </mxGeometry>
                </mxCell>
                <mxCell id="65" value="" style="endArrow=none;dashed=1;html=1;dashPattern=1 3;strokeWidth=2;endSize=11;entryX=0;entryY=0;entryDx=0;entryDy=0;exitX=0;exitY=1;exitDx=0;exitDy=0;" parent="1" edge="1">
                    <mxGeometry width="50" height="50" relative="1" as="geometry">
                        <mxPoint x="250" y="100" as="sourcePoint"/>
                        <mxPoint x="250" y="60" as="targetPoint"/>
                    </mxGeometry>
                </mxCell>
                <mxCell id="66" value="" style="rounded=0;whiteSpace=wrap;html=1;fillColor=#6a00ff;fontColor=#ffffff;strokeColor=#000000;" parent="1" vertex="1">
                    <mxGeometry x="290" y="60" width="120" height="40" as="geometry"/>
                </mxCell>
                <mxCell id="67" value="" style="endArrow=none;dashed=1;html=1;dashPattern=1 3;strokeWidth=2;endSize=11;entryX=0;entryY=0;entryDx=0;entryDy=0;exitX=0;exitY=1;exitDx=0;exitDy=0;" parent="1" edge="1">
                    <mxGeometry width="50" height="50" relative="1" as="geometry">
                        <mxPoint x="330" y="100" as="sourcePoint"/>
                        <mxPoint x="330" y="60" as="targetPoint"/>
                    </mxGeometry>
                </mxCell>
                <mxCell id="68" value="" style="endArrow=none;dashed=1;html=1;dashPattern=1 3;strokeWidth=2;endSize=11;entryX=0;entryY=0;entryDx=0;entryDy=0;exitX=0;exitY=1;exitDx=0;exitDy=0;" parent="1" edge="1">
                    <mxGeometry width="50" height="50" relative="1" as="geometry">
                        <mxPoint x="370" y="100" as="sourcePoint"/>
                        <mxPoint x="370" y="60" as="targetPoint"/>
                    </mxGeometry>
                </mxCell>
                <mxCell id="69" value="Triad" style="text;html=1;strokeColor=none;fillColor=none;align=center;verticalAlign=middle;whiteSpace=wrap;rounded=0;" parent="1" vertex="1">
                    <mxGeometry x="190" y="70" width="80" height="20" as="geometry"/>
                </mxCell>
                <mxCell id="70" value="Triad" style="text;html=1;strokeColor=none;fillColor=none;align=center;verticalAlign=middle;whiteSpace=wrap;rounded=0;" parent="1" vertex="1">
                    <mxGeometry x="310" y="70" width="80" height="20" as="geometry"/>
                </mxCell>
                <mxCell id="81" style="edgeStyle=orthogonalEdgeStyle;html=1;exitX=0.5;exitY=0;exitDx=0;exitDy=0;entryX=0.5;entryY=1;entryDx=0;entryDy=0;endArrow=open;endFill=0;endSize=11;" parent="1" source="71" target="16" edge="1">
                    <mxGeometry relative="1" as="geometry"/>
                </mxCell>
                <mxCell id="71" value="b" style="rounded=0;whiteSpace=wrap;html=1;fillColor=#60a917;fontColor=#ffffff;strokeColor=#000000;fontSize=23;" parent="1" vertex="1">
                    <mxGeometry x="10" y="140" width="40" height="40" as="geometry"/>
                </mxCell>
                <mxCell id="72" value="c" style="rounded=0;whiteSpace=wrap;html=1;fillColor=#60a917;fontColor=#ffffff;strokeColor=#000000;fontSize=23;" parent="1" vertex="1">
                    <mxGeometry x="10" y="190" width="40" height="40" as="geometry"/>
                </mxCell>
                <mxCell id="73" value="d" style="rounded=0;whiteSpace=wrap;html=1;fillColor=#60a917;fontColor=#ffffff;strokeColor=#000000;fontSize=23;" parent="1" vertex="1">
                    <mxGeometry x="10" y="240" width="40" height="40" as="geometry"/>
                </mxCell>
                <mxCell id="74" value="l" style="rounded=0;whiteSpace=wrap;html=1;fillColor=#60a917;fontColor=#ffffff;strokeColor=#000000;fontSize=23;" parent="1" vertex="1">
                    <mxGeometry x="10" y="290" width="40" height="40" as="geometry"/>
                </mxCell>
                <mxCell id="75" value="-" style="rounded=0;whiteSpace=wrap;html=1;fillColor=#60a917;fontColor=#ffffff;strokeColor=#000000;fontSize=23;" parent="1" vertex="1">
                    <mxGeometry x="10" y="340" width="40" height="40" as="geometry"/>
                </mxCell>
                <mxCell id="76" value="Block Device" style="text;html=1;strokeColor=none;fillColor=none;align=left;verticalAlign=middle;whiteSpace=wrap;rounded=0;" parent="1" vertex="1">
                    <mxGeometry x="60" y="150" width="70" height="20" as="geometry"/>
                </mxCell>
                <mxCell id="77" value="Character&lt;br&gt;Device" style="text;html=1;strokeColor=none;fillColor=none;align=left;verticalAlign=middle;whiteSpace=wrap;rounded=0;" parent="1" vertex="1">
                    <mxGeometry x="60" y="200" width="70" height="20" as="geometry"/>
                </mxCell>
                <mxCell id="78" value="Directory" style="text;html=1;strokeColor=none;fillColor=none;align=left;verticalAlign=middle;whiteSpace=wrap;rounded=0;" parent="1" vertex="1">
                    <mxGeometry x="60" y="250" width="70" height="20" as="geometry"/>
                </mxCell>
                <mxCell id="79" value="Link" style="text;html=1;strokeColor=none;fillColor=none;align=left;verticalAlign=middle;whiteSpace=wrap;rounded=0;" parent="1" vertex="1">
                    <mxGeometry x="60" y="300" width="70" height="20" as="geometry"/>
                </mxCell>
                <mxCell id="80" value="regular file" style="text;html=1;strokeColor=none;fillColor=none;align=left;verticalAlign=middle;whiteSpace=wrap;rounded=0;" parent="1" vertex="1">
                    <mxGeometry x="60" y="350" width="70" height="20" as="geometry"/>
                </mxCell>
                <mxCell id="86" style="edgeStyle=orthogonalEdgeStyle;html=1;exitX=0.5;exitY=0;exitDx=0;exitDy=0;entryX=0.5;entryY=1;entryDx=0;entryDy=0;endArrow=open;endFill=0;endSize=11;" parent="1" source="82" target="12" edge="1">
                    <mxGeometry relative="1" as="geometry">
                        <Array as="points">
                            <mxPoint x="510" y="130"/>
                            <mxPoint x="430" y="130"/>
                        </Array>
                    </mxGeometry>
                </mxCell>
                <mxCell id="82" value="+" style="rounded=0;whiteSpace=wrap;html=1;fontSize=23;fillColor=#a20025;fontColor=#ffffff;strokeColor=#000000;" parent="1" vertex="1">
                    <mxGeometry x="490" y="140" width="40" height="40" as="geometry"/>
                </mxCell>
                <mxCell id="83" value="" style="rounded=0;whiteSpace=wrap;html=1;fontSize=23;fillColor=#a20025;fontColor=#ffffff;strokeColor=#000000;" parent="1" vertex="1">
                    <mxGeometry x="490" y="190" width="40" height="40" as="geometry"/>
                </mxCell>
                <mxCell id="84" value="There are alternate access methods for the file" style="text;html=1;strokeColor=none;fillColor=none;align=left;verticalAlign=middle;whiteSpace=wrap;rounded=0;" parent="1" vertex="1">
                    <mxGeometry x="540" y="150" width="120" height="20" as="geometry"/>
                </mxCell>
                <mxCell id="85" value="no alternatives" style="text;html=1;strokeColor=none;fillColor=none;align=left;verticalAlign=middle;whiteSpace=wrap;rounded=0;" parent="1" vertex="1">
                    <mxGeometry x="540" y="200" width="120" height="20" as="geometry"/>
                </mxCell>
                <mxCell id="87" value="permissions" style="rounded=0;whiteSpace=wrap;html=1;fontColor=#ffffff;strokeColor=#000000;fontSize=12;fillColor=#CC6600;" vertex="1" parent="1">
                    <mxGeometry x="10" y="-90" width="140" height="40" as="geometry"/>
                </mxCell>
                <mxCell id="88" value="number&lt;br&gt;of links" style="rounded=0;whiteSpace=wrap;html=1;fontColor=#ffffff;strokeColor=#000000;fontSize=12;fillColor=#CC6600;" vertex="1" parent="1">
                    <mxGeometry x="160" y="-90" width="60" height="40" as="geometry"/>
                </mxCell>
                <mxCell id="89" value="owner&lt;br&gt;user ID" style="rounded=0;whiteSpace=wrap;html=1;fontColor=#ffffff;strokeColor=#000000;fontSize=12;fillColor=#CC6600;" vertex="1" parent="1">
                    <mxGeometry x="230" y="-90" width="60" height="40" as="geometry"/>
                </mxCell>
                <mxCell id="90" value="group ID of owner" style="rounded=0;whiteSpace=wrap;html=1;fontColor=#ffffff;strokeColor=#000000;fontSize=12;fillColor=#CC6600;" vertex="1" parent="1">
                    <mxGeometry x="300" y="-90" width="60" height="40" as="geometry"/>
                </mxCell>
                <mxCell id="91" value="Major #" style="rounded=0;whiteSpace=wrap;html=1;fontColor=#ffffff;strokeColor=#000000;fontSize=12;fillColor=#CC6600;" vertex="1" parent="1">
                    <mxGeometry x="430" y="-120" width="55" height="40" as="geometry"/>
                </mxCell>
                <mxCell id="92" value="Minor #" style="rounded=0;whiteSpace=wrap;html=1;fontColor=#ffffff;strokeColor=#000000;fontSize=12;fillColor=#CC6600;" vertex="1" parent="1">
                    <mxGeometry x="495" y="-120" width="55" height="40" as="geometry"/>
                </mxCell>
                <mxCell id="93" value="File size" style="rounded=0;whiteSpace=wrap;html=1;fontColor=#ffffff;strokeColor=#000000;fontSize=12;fillColor=#CC6600;" vertex="1" parent="1">
                    <mxGeometry x="430" y="-70" width="120" height="40" as="geometry"/>
                </mxCell>
                <mxCell id="95" value="Date Created" style="rounded=0;whiteSpace=wrap;html=1;fontColor=#ffffff;strokeColor=#000000;fontSize=12;fillColor=#CC6600;" vertex="1" parent="1">
                    <mxGeometry x="560" y="-90" width="100" height="40" as="geometry"/>
                </mxCell>
                <mxCell id="96" value="Filename" style="rounded=0;whiteSpace=wrap;html=1;fontColor=#ffffff;strokeColor=#000000;fontSize=12;fillColor=#CC6600;" vertex="1" parent="1">
                    <mxGeometry x="670" y="-90" width="100" height="40" as="geometry"/>
                </mxCell>
                <mxCell id="97" value="Device File" style="text;html=1;strokeColor=none;fillColor=none;align=center;verticalAlign=middle;whiteSpace=wrap;rounded=0;" vertex="1" parent="1">
                    <mxGeometry x="375" y="-110" width="40" height="20" as="geometry"/>
                </mxCell>
                <mxCell id="98" value="Regular File" style="text;html=1;strokeColor=none;fillColor=none;align=center;verticalAlign=middle;whiteSpace=wrap;rounded=0;" vertex="1" parent="1">
                    <mxGeometry x="375" y="-60" width="40" height="20" as="geometry"/>
                </mxCell>
                <mxCell id="99" value="" style="shape=curlyBracket;whiteSpace=wrap;html=1;rounded=1;flipH=1;rotation=-90;" vertex="1" parent="1">
                    <mxGeometry x="220" y="-220" width="20" height="440" as="geometry"/>
                </mxCell>
                <mxCell id="101" style="edgeStyle=orthogonalEdgeStyle;html=1;exitX=0.1;exitY=0.5;exitDx=0;exitDy=0;entryX=0.5;entryY=1;entryDx=0;entryDy=0;endArrow=open;endFill=0;endSize=11;exitPerimeter=0;" edge="1" parent="1" source="99" target="87">
                    <mxGeometry relative="1" as="geometry">
                        <mxPoint x="160" y="205" as="sourcePoint"/>
                        <mxPoint x="210" y="165" as="targetPoint"/>
                        <Array as="points">
                            <mxPoint x="230" y="-20"/>
                            <mxPoint x="80" y="-20"/>
                        </Array>
                    </mxGeometry>
                </mxCell>
            </root>
        </mxGraphModel>
    </diagram>
</mxfile>